<svg width="60" height="60" viewBox="0 0 60 60" fill="none" xmlns="http://www.w3.org/2000/svg">
<rect width="60" height="60" rx="30" fill="white"/>
<path fill-rule="evenodd" clip-rule="evenodd" d="M29.2174 15.932C29.4626 15.3244 29.7197 14.6871 30 14C30.2768 14.6497 30.5323 15.254 30.7762 15.8309C32.9535 20.981 34.2034 23.9373 41.4108 37.3569C41.4731 37.4729 41.4958 37.4986 41.6431 37.8385C41.813 38.1785 41.7705 38.0935 42.068 38.6459C42.1955 38.9009 42.2805 39.0283 42.4584 39.3013C43.2469 40.7633 44.0752 42.2975 45 44C40.3102 41.2925 36.66 39.6073 33.263 38.9427C33.3759 38.4308 33.4425 37.8795 33.457 37.3058C33.5325 34.2594 32.0709 31.6602 30.1941 31.5013C28.3167 31.3423 26.7319 33.6847 26.6564 36.7306L26.6527 36.8806C26.647 37.5955 26.7253 38.2836 26.8725 38.9169C23.4384 39.5628 19.7531 41.2559 15 44C21.0492 33.1306 24.0323 27.477 25.935 23.5067C26.1127 23.136 26.0907 23.221 26.2181 22.966C26.3156 22.7711 26.3456 22.711 26.3672 22.595C27.5416 20.085 28.2944 18.2194 29.2174 15.932ZM29.963 37.9719C31.225 37.9719 32.2481 36.9488 32.2481 35.6868C32.2481 34.4247 31.225 33.4016 29.963 33.4016C28.7009 33.4016 27.6778 34.4247 27.6778 35.6868C27.6778 36.9488 28.7009 37.9719 29.963 37.9719Z" fill="#B924FF"/>
</svg>
