<svg width="150" height="150" viewBox="0 0 150 150" fill="none" xmlns="http://www.w3.org/2000/svg">
<circle cx="75" cy="75" r="75" fill="#FF278F"/>
<path d="M48.4164 88.9904L48.4171 88.9896C51.1458 86.2453 54.6477 84.5639 58.4689 84.0274L78.5521 100.076C78.9955 105.143 77.4144 110.276 73.6402 114.074L73.6401 114.074C70.3205 117.415 65.1293 119.568 59.1915 120.857C53.3062 122.135 46.9977 122.5 41.7615 122.5H31.2577C29.1774 122.5 27.5 120.822 27.5 118.75C27.5 116.718 29.1521 114.961 31.3345 114.82C34.9567 114.804 38.1007 113.643 40.3022 111.502C42.537 109.329 43.6081 106.327 43.3263 103.099L43.3263 103.099C42.8835 98.0393 44.586 92.8396 48.4164 88.9904ZM115.536 27.5196L115.546 27.5204L115.557 27.5211C117.548 27.6513 119.355 28.5457 120.673 30.0533C122.824 32.5356 123.107 36.2176 121.339 38.9702L121.334 38.9778L121.329 38.9854L92.7357 84.2193L92.7354 84.2197C90.8205 87.2505 87.9648 89.4375 84.5926 90.5098L65.028 74.8688C65.2065 72.47 65.9322 70.1024 67.2859 67.9617C68.0254 66.803 68.9856 65.6596 70.0658 64.7123L70.0709 64.7079L110.162 29.3606L110.164 29.3589C111.666 28.032 113.58 27.3753 115.536 27.5196Z" stroke="#FFEFB1" stroke-width="5"/>
</svg>
