<svg width="150" height="150" viewBox="0 0 150 150" fill="none" xmlns="http://www.w3.org/2000/svg">
<circle cx="75" cy="75" r="75" fill="#B924FF"/>
<path d="M122.536 64.2831L122.537 64.2844C123.244 65.3284 123.131 66.7151 122.266 67.627L122.262 67.6315L76.8743 115.797L76.8734 115.798C76.3656 116.338 75.6525 116.645 74.912 116.645C74.1727 116.645 73.4659 116.345 72.9441 115.796C72.9433 115.795 72.9424 115.794 72.9416 115.793L27.736 67.6337L27.7344 67.632C26.8683 66.7115 26.7566 65.317 27.4618 64.2783L27.4618 64.2784L27.4684 64.2686L47.6306 34.1914C47.6317 34.1897 47.6329 34.188 47.6341 34.1863C48.1698 33.4031 49.0163 33 49.6944 33H99.9536C100.714 33 101.701 33.4721 102.19 34.1946L122.536 64.2831ZM101.324 42.5269L99.8089 40.2535L98.0998 42.3851L83.1335 61.0508L80.5268 64.3019H84.6939H112.103H115.839L113.767 61.1926L101.324 42.5269ZM73.3448 60.9815L74.913 62.9599L76.4801 60.9805L91.7985 41.632L94.3648 38.3906H90.2304H59.5741H55.4365L58.0068 41.633L73.3448 60.9815ZM51.7315 42.3941L50.0355 40.2537L48.5067 42.5166L35.8959 61.1823L33.7883 64.3019H37.5532H64.9541H69.0906L66.5217 61.0599L51.7315 42.3941ZM73.4566 108.475L74.9119 110.019L76.3674 108.475L109.747 73.0644L112.925 69.6925H108.292H41.5403H36.9072L40.0848 73.0642L73.4566 108.475Z" stroke="#FFEFB1" stroke-width="4"/>
</svg>
