<svg width="150" height="150" viewBox="0 0 150 150" fill="none" xmlns="http://www.w3.org/2000/svg">
<circle cx="75" cy="75" r="75" fill="#FF8D24"/>
<path d="M58.4411 121.396L58.4311 121.405C57.5149 122.215 56.6097 122.5 55.7826 122.5C55.0032 122.5 54.2315 122.263 53.5742 121.784L53.5715 121.782C52.1501 120.75 51.6333 118.873 52.327 117.26L52.3282 117.257L67.3738 82.159L68.8678 78.674H65.0761H43.2628C41.6938 78.674 40.2906 77.702 39.7395 76.235L39.7393 76.2347C39.1902 74.7737 39.6061 73.1177 40.7882 72.083L90.6982 28.4338L90.703 28.4296C92.0194 27.2724 93.9616 27.1872 95.3815 28.221L95.3839 28.2227C96.8053 29.2552 97.3222 31.1319 96.6284 32.7447L96.6271 32.7478L81.5854 67.8478L80.0919 71.3328L83.8834 71.3325L105.698 71.331C105.698 71.331 105.699 71.331 105.699 71.331C107.268 71.3311 108.671 72.3031 109.222 73.77L109.26 73.8704L109.306 73.9673C109.847 75.1018 109.562 76.6802 108.349 77.7494C108.348 77.7502 108.347 77.7509 108.346 77.7516L58.4411 121.396Z" stroke="#FFEFB1" stroke-width="5"/>
</svg>
